<svg xmlns="http://www.w3.org/2000/svg" width="320" height="200" viewBox="0 0 320 200">
<defs>
  <linearGradient id="leafGrad" x1="0" y1="0" x2="1" y2="1">
    <stop offset="0" stop-color="#48b07b"/>
    <stop offset="1" stop-color="#1b6b46"/>
  </linearGradient>
  <linearGradient id="leafGradWarm" x1="0" y1="0" x2="1" y2="1">
    <stop offset="0" stop-color="#f3c06a"/>
    <stop offset="1" stop-color="#c98c2a"/>
  </linearGradient>
</defs>
<rect width="320" height="200" rx="24" fill="#f6f8fb"/>
<path d="M60 120c12-40 52-70 100-70 55 0 100 30 115 70-20 12-55 24-115 24-60 0-95-12-100-24z" fill="url(#leafGrad)"/>
<path d="M88 122c16-26 42-40 72-40 34 0 62 14 82 40-20 8-40 12-82 12-42 0-58-4-72-12z" fill="#2b8755" opacity="0.35"/>
<path d="M160 64c-6 20-8 40-6 66" stroke="#1a5e3c" stroke-width="3" stroke-linecap="round" opacity="0.35"/>
<g fill="#7a4b3a">
  <circle cx="120" cy="106" r="7"/>
  <circle cx="152" cy="96" r="6"/>
  <circle cx="188" cy="110" r="8"/>
  <circle cx="210" cy="122" r="5"/>
  <circle cx="138" cy="122" r="4"/>
</g>
</svg>
